<svg width="24" height="24" viewBox="0 0 24 24" fill="none" xmlns="http://www.w3.org/2000/svg">
<path d="M12.0001 23.8509C13.8922 23.8509 15.427 22.5163 15.427 20.8696H8.57311C8.57311 22.5163 10.1079 23.8509 12.0001 23.8509ZM23.5388 16.8769C22.5038 15.9098 20.5672 14.455 20.5672 9.68944C20.5672 6.06988 17.6486 3.17236 13.7133 2.46149V1.49068C13.7133 0.667547 12.9461 0 12.0001 0C11.054 0 10.2869 0.667547 10.2869 1.49068V2.46149C6.3515 3.17236 3.43293 6.06988 3.43293 9.68944C3.43293 14.455 1.49632 15.9098 0.461323 16.8769C0.139895 17.1773 -0.0026055 17.5365 3.60309e-05 17.8882C0.00596593 18.6522 0.69543 19.3789 1.71972 19.3789H22.2804C23.3047 19.3789 23.9947 18.6522 24.0001 17.8882C24.0028 17.5365 23.8603 17.1769 23.5388 16.8769Z" fill="white"/>
</svg>
