<svg width="32" height="32" viewBox="0 0 32 32" fill="none" xmlns="http://www.w3.org/2000/svg">
<path d="M19.3978 15.6628L13.3603 10.9472C13.3445 10.9348 13.3255 10.927 13.3056 10.9249C13.2856 10.9228 13.2654 10.9263 13.2474 10.9351C13.2294 10.944 13.2142 10.9577 13.2036 10.9747C13.193 10.9918 13.1874 11.0115 13.1875 11.0316V12.0668C13.1875 12.1325 13.2183 12.1954 13.2692 12.2356L18.0906 16.0003L13.2692 19.765C13.217 19.8052 13.1875 19.8682 13.1875 19.9338V20.9691C13.1875 21.0588 13.2906 21.1083 13.3603 21.0534L19.3978 16.3378C19.4491 16.2978 19.4906 16.2466 19.5191 16.1881C19.5477 16.1296 19.5625 16.0654 19.5625 16.0003C19.5625 15.9352 19.5477 15.871 19.5191 15.8125C19.4906 15.754 19.4491 15.7028 19.3978 15.6628Z" fill="#F9F6F1"/>
</svg>
