<svg width="32" height="32" viewBox="0 0 32 32" fill="none" xmlns="http://www.w3.org/2000/svg">
<g opacity="0.5">
<path d="M18.8396 12.0662V11.0309C18.8396 10.9412 18.7365 10.8917 18.6669 10.9466L12.6294 15.6622C12.5781 15.7021 12.5365 15.7532 12.508 15.8115C12.4794 15.8699 12.4646 15.934 12.4646 15.999C12.4646 16.064 12.4794 16.1281 12.508 16.1865C12.5365 16.2449 12.5781 16.296 12.6294 16.3359L18.6669 21.0515C18.7378 21.1064 18.8396 21.0568 18.8396 20.9671V19.9318C18.8396 19.8662 18.8088 19.8033 18.7579 19.7631L13.9365 15.9997L18.7579 12.235C18.8088 12.1948 18.8396 12.1318 18.8396 12.0662Z" fill="#D9D9D9"/>
</g>
</svg>
